<svg width="8" height="5" viewBox="0 0 8 5" fill="none" xmlns="http://www.w3.org/2000/svg">
<path d="M0.221901 0.218095C0.362423 0.0784068 0.552512 6.42884e-07 0.750651 6.25562e-07C0.948791 6.0824e-07 1.13888 0.0784067 1.2794 0.218095L3.9719 2.87309L6.6269 0.218094C6.76742 0.0784062 6.95751 8.29413e-08 7.15565 6.56194e-08C7.35379 4.82975e-08 7.54388 0.0784062 7.6844 0.218094C7.7547 0.287817 7.81049 0.370767 7.84857 0.462162C7.88665 0.553556 7.90625 0.651586 7.90625 0.750594C7.90625 0.849603 7.88665 0.947633 7.84857 1.03903C7.81049 1.13042 7.7547 1.21337 7.6844 1.28309L4.5044 4.4631C4.43468 4.53339 4.35173 4.58919 4.26033 4.62726C4.16894 4.66534 4.07091 4.68494 3.9719 4.68494C3.87289 4.68494 3.77486 4.66534 3.68347 4.62726C3.59207 4.58919 3.50912 4.53339 3.4394 4.4631L0.221902 1.2831C0.151605 1.21337 0.0958096 1.13042 0.0577331 1.03903C0.0196567 0.947633 5.20495e-05 0.849604 5.20409e-05 0.750595C5.20322e-05 0.651586 0.0196567 0.553557 0.0577331 0.462162C0.0958095 0.370768 0.151605 0.287817 0.221901 0.218095Z" fill="black"/>
</svg>
