<svg width="23" height="23" viewBox="0 0 23 23" fill="none" xmlns="http://www.w3.org/2000/svg">
<path d="M8.47176 15.7042C8.2997 15.5311 8.20313 15.297 8.20313 15.0529C8.20313 14.8089 8.2997 14.5747 8.47176 14.4017L11.742 11.0853L8.47176 7.81506C8.2997 7.64197 8.20313 7.40784 8.20313 7.16379C8.20313 6.91973 8.2997 6.6856 8.47176 6.51252C8.55763 6.42593 8.65981 6.35721 8.77238 6.31031C8.88495 6.26341 9.00569 6.23926 9.12764 6.23926C9.2496 6.23926 9.37034 6.26341 9.48291 6.31031C9.59548 6.35721 9.69766 6.42593 9.78353 6.51252L13.7004 10.4294C13.787 10.5153 13.8557 10.6174 13.9026 10.73C13.9495 10.8426 13.9736 10.9633 13.9736 11.0853C13.9736 11.2072 13.9495 11.328 13.9026 11.4405C13.8557 11.5531 13.787 11.6553 13.7004 11.7412L9.78354 15.7042C9.69766 15.7908 9.59549 15.8595 9.48291 15.9064C9.37034 15.9533 9.2496 15.9775 9.12765 15.9775C9.0057 15.9775 8.88495 15.9533 8.77238 15.9064C8.65981 15.8595 8.55764 15.7908 8.47176 15.7042Z" fill="#C8C8C8"/>
</svg>
