<svg width="7" height="11" viewBox="0 0 7 11" fill="none" xmlns="http://www.w3.org/2000/svg">
<path d="M5.95579 0.295706C6.14204 0.483068 6.24658 0.73652 6.24658 1.00071C6.24658 1.26489 6.14204 1.51834 5.95579 1.70571L2.41579 5.29571L5.95579 8.83571C6.14204 9.02307 6.24658 9.27652 6.24658 9.54071C6.24658 9.80489 6.14204 10.0583 5.95579 10.2457C5.86283 10.3394 5.75223 10.4138 5.63037 10.4646C5.50851 10.5154 5.3778 10.5415 5.24579 10.5415C5.11378 10.5415 4.98307 10.5154 4.86121 10.4646C4.73935 10.4138 4.62875 10.3394 4.53579 10.2457L0.29579 6.00571C0.202061 5.91274 0.127667 5.80214 0.0768985 5.68028C0.0261297 5.55842 -8.64405e-06 5.42772 -8.64562e-06 5.29571C-8.6472e-06 5.16369 0.0261297 5.03299 0.0768985 4.91113C0.127667 4.78927 0.202061 4.67867 0.29579 4.58571L4.53579 0.295706C4.62875 0.201978 4.73935 0.127584 4.86121 0.0768147C4.98307 0.0260458 5.11378 -9.34466e-05 5.24579 -9.34481e-05C5.3778 -9.34497e-05 5.50851 0.0260458 5.63037 0.0768147C5.75223 0.127584 5.86283 0.201978 5.95579 0.295706Z" fill="black"/>
</svg>
