<svg width="22" height="22" viewBox="0 0 22 22" fill="none" xmlns="http://www.w3.org/2000/svg">
<path d="M11.5498 2.0625C12.017 2.0625 12.477 2.09464 12.9268 2.15625C13.3029 2.20786 13.5662 2.55453 13.5146 2.93066C13.463 3.30664 13.1162 3.56993 12.7402 3.51855C12.3522 3.4654 11.9544 3.4375 11.5498 3.4375C7.02702 3.4376 3.4375 6.86453 3.4375 11C3.4375 15.1355 7.02702 18.5624 11.5498 18.5625C11.9544 18.5625 12.3522 18.5346 12.7402 18.4814C13.1162 18.4301 13.463 18.6934 13.5146 19.0693C13.5662 19.4455 13.3029 19.7921 12.9268 19.8438C12.477 19.9054 12.017 19.9375 11.5498 19.9375C6.35256 19.9374 2.0625 15.9771 2.0625 11C2.0625 6.02289 6.35256 2.0626 11.5498 2.0625ZM16.4658 8.22949C16.7305 7.95728 17.1652 7.9512 17.4375 8.21582C17.5212 8.29715 17.6879 8.43073 17.9365 8.62598C17.9545 8.64007 17.9727 8.65441 17.9912 8.66895C18.2132 8.84318 18.4741 9.04722 18.7227 9.25781C18.9889 9.4834 19.2655 9.73588 19.4805 9.98828C19.5882 10.1147 19.6943 10.2578 19.7764 10.4111C19.8556 10.5591 19.9375 10.7632 19.9375 11C19.9375 11.2368 19.8556 11.4409 19.7764 11.5889C19.6943 11.7422 19.5882 11.8853 19.4805 12.0117C19.2655 12.2641 18.9889 12.5166 18.7227 12.7422C18.4741 12.9528 18.2132 13.1568 17.9912 13.3311C17.9727 13.3456 17.9545 13.3599 17.9365 13.374C17.6879 13.5693 17.5212 13.7028 17.4375 13.7842C17.1652 14.0488 16.7305 14.0427 16.4658 13.7705C16.2012 13.4982 16.2072 13.0635 16.4795 12.7988C16.6276 12.6549 16.8627 12.4691 17.0869 12.293C17.1042 12.2794 17.1221 12.2657 17.1396 12.252C17.3648 12.0752 17.6061 11.8864 17.834 11.6934C17.8361 11.6916 17.8377 11.6893 17.8398 11.6875H10.083C9.70346 11.6873 9.39551 11.3796 9.39551 11C9.39551 10.6204 9.70346 10.3127 10.083 10.3125H17.8398C17.8377 10.3107 17.8361 10.3084 17.834 10.3066C17.6061 10.1136 17.3649 9.92485 17.1396 9.74805C17.1221 9.73431 17.1042 9.72062 17.0869 9.70703C16.8627 9.5309 16.6276 9.3451 16.4795 9.20117C16.2072 8.93653 16.2012 8.50176 16.4658 8.22949Z" fill="#0F0F0E"/>
</svg>
