<svg width="18" height="18" viewBox="0 0 18 18" fill="none" xmlns="http://www.w3.org/2000/svg">
<path d="M9 9.9375C9.27133 9.93746 9.4943 9.83963 9.68457 9.72266C9.85629 9.61708 10.0455 9.46709 10.248 9.30664C10.2553 9.30091 10.2623 9.29482 10.2695 9.28906L14.9063 5.61621C14.9128 5.61102 14.9201 5.60583 14.9268 5.60059C15.0467 5.50562 15.1761 5.40334 15.2744 5.30176C15.3907 5.18161 15.5127 5.01398 15.5508 4.7793C15.5885 4.54627 15.5269 4.34922 15.457 4.19922C15.3972 4.07078 15.3081 3.93101 15.2246 3.79883C15.2201 3.79176 15.2154 3.78436 15.2109 3.77734L14.7178 2.99512C14.7125 2.98668 14.7065 2.97814 14.7012 2.96973C14.5788 2.77576 14.4606 2.58816 14.3477 2.4502C14.2328 2.30994 14.0318 2.10279 13.7158 2.06738C13.3815 2.03 13.1272 2.21592 12.9902 2.32813C12.843 2.44877 12.6739 2.6218 12.4922 2.80859L12.4717 2.83008C12.0487 3.26485 11.6553 3.49711 11.1973 3.76758C11.0206 3.87187 10.8342 3.98181 10.6328 4.11133C10.0857 4.46323 9.53859 4.90594 9 5.66992C8.46139 4.90592 7.91339 4.46323 7.36621 4.11133C7.16507 3.98198 6.97918 3.87176 6.80273 3.76758C6.34465 3.49711 5.95129 3.26486 5.52832 2.83008C5.5214 2.82296 5.5147 2.81567 5.50781 2.80859C5.32618 2.62185 5.15696 2.44877 5.00977 2.32812C4.87284 2.21593 4.61847 2.03005 4.28418 2.06738C3.9681 2.10273 3.76724 2.30991 3.65234 2.4502C3.53931 2.58825 3.42035 2.77558 3.29785 2.96973C3.29257 2.9781 3.28752 2.98673 3.28223 2.99512L2.78809 3.77734C2.78371 3.78428 2.7798 3.79184 2.77539 3.79883C2.69189 3.93101 2.60286 4.07076 2.54297 4.19922C2.47307 4.34923 2.41151 4.54624 2.44922 4.7793C2.48729 5.01406 2.60924 5.1816 2.72559 5.30176C2.82399 5.40338 2.95322 5.50559 3.07324 5.60059C3.0798 5.60578 3.08627 5.61106 3.09277 5.61621L7.75195 9.30664C7.95447 9.4671 8.1437 9.61708 8.31543 9.72266C8.50569 9.8396 8.72869 9.9375 9 9.9375ZM8.9043 8.76465C8.7967 8.6985 8.66105 8.59127 8.42871 8.40723L3.79199 4.73438C3.7217 4.67869 3.66747 4.63551 3.62207 4.59766C3.61798 4.59425 3.61316 4.59108 3.60938 4.58789C3.6132 4.58136 3.61775 4.57462 3.62207 4.56738C3.65321 4.5153 3.6915 4.45514 3.74023 4.37793L4.2334 3.5957C4.31082 3.47305 4.36999 3.3796 4.41797 3.30762C4.49471 3.38159 4.59162 3.48154 4.72168 3.61523C5.25854 4.16703 5.8292 4.50294 6.32129 4.79297C6.47562 4.88393 6.62225 4.97044 6.75781 5.05762C7.33373 5.428 7.90959 5.90862 8.50488 7.00879C8.60316 7.19044 8.79347 7.30371 9 7.30371C9.20647 7.30365 9.39588 7.19038 9.49414 7.00879C10.0894 5.90854 10.6653 5.42801 11.2412 5.05762C11.3769 4.97034 11.5242 4.88404 11.6787 4.79297C12.1708 4.50292 12.7414 4.16712 13.2783 3.61523C13.4084 3.48155 13.5053 3.38159 13.582 3.30762C13.63 3.37963 13.6891 3.47299 13.7666 3.5957L14.2598 4.37793C14.3085 4.4551 14.3458 4.51532 14.377 4.56738C14.3813 4.57466 14.3858 4.58133 14.3896 4.58789C14.3859 4.59105 14.382 4.59428 14.3779 4.59766C14.3325 4.63554 14.2784 4.67863 14.208 4.73438L9.57129 8.40723C9.33894 8.59128 9.20331 8.69848 9.0957 8.76465C9.03974 8.79905 9.01086 8.80955 9 8.8125C8.98921 8.80958 8.9603 8.79907 8.9043 8.76465ZM13.1621 15.8252C13.3325 15.953 13.5605 15.9731 13.751 15.8779C13.9415 15.7826 14.0625 15.5881 14.0625 15.375V11.8535C14.0625 11.5429 13.8106 11.2911 13.5 11.291C13.1893 11.291 12.9375 11.5429 12.9375 11.8535V14.25L9.9375 12L16.8369 6.8252C17.0853 6.63892 17.1362 6.28659 16.9502 6.03809C16.7638 5.78956 16.4106 5.73841 16.1621 5.9248L9 11.2969L1.83691 5.9248C1.58841 5.73877 1.2361 5.78969 1.0498 6.03809C0.86372 6.28656 0.913775 6.63886 1.16211 6.8252L8.0625 12L5.0625 14.25L5.0625 11.8535C5.0625 11.5429 4.81058 11.2911 4.5 11.291C4.18934 11.291 3.9375 11.5429 3.9375 11.8535L3.9375 15.375C3.9375 15.5879 4.05765 15.7826 4.24805 15.8779C4.4385 15.9732 4.6665 15.9528 4.83691 15.8252L9 12.7031L13.1621 15.8252Z" fill="white"/>
</svg>
