<svg width="16" height="16" viewBox="0 0 16 16" fill="none" xmlns="http://www.w3.org/2000/svg">
<path fill-rule="evenodd" clip-rule="evenodd" d="M10.1255 2.46078L9.3258 1.66106L9.32575 1.66101C9.10996 1.44517 8.91391 1.24909 8.73341 1.11137C8.53541 0.960295 8.29852 0.83317 7.99967 0.83317C7.70083 0.83317 7.46394 0.960297 7.26594 1.11137C7.08542 1.2491 6.88938 1.44519 6.67355 1.66105L5.87383 2.46078C5.85456 2.48005 5.84492 2.48969 5.83267 2.49476C5.82042 2.49984 5.8068 2.49984 5.77955 2.49984L4.39782 2.49983H4.39781C4.08728 2.4998 3.806 2.49977 3.57786 2.53045C3.3279 2.56405 3.06832 2.6425 2.85533 2.85549C2.64234 3.06848 2.56389 3.32806 2.53028 3.57802C2.49961 3.80616 2.49964 4.08746 2.49967 4.398L2.49967 5.77971C2.49967 5.80696 2.49967 5.82058 2.4946 5.83283C2.48953 5.84509 2.47989 5.85472 2.46062 5.87399L1.66089 6.67372L1.66088 6.67372C1.44502 6.88954 1.24894 7.08558 1.11121 7.2661C0.960133 7.46411 0.833008 7.70099 0.833008 7.99984C0.833008 8.29868 0.960133 8.53557 1.11121 8.73357C1.24894 8.9141 1.44503 9.11014 1.6609 9.32596L2.46062 10.1257L2.46062 10.1257C2.47989 10.145 2.48953 10.1546 2.4946 10.1668C2.49967 10.1791 2.49967 10.1927 2.49967 10.22L2.49967 11.6017C2.49964 11.9122 2.49961 12.1935 2.53028 12.4217C2.56389 12.6716 2.64234 12.9312 2.85533 13.1442C3.06832 13.3572 3.3279 13.4356 3.57786 13.4692C3.806 13.4999 4.08731 13.4999 4.39784 13.4998L5.77955 13.4998C5.8068 13.4998 5.82042 13.4998 5.83267 13.5049C5.84492 13.51 5.85456 13.5196 5.87383 13.5389L6.67357 14.3386C6.88939 14.5545 7.08542 14.7506 7.26594 14.8883C7.46394 15.0394 7.70083 15.1665 7.99967 15.1665C8.29852 15.1665 8.53541 15.0394 8.73341 14.8883C8.91394 14.7506 9.10999 14.5545 9.32582 14.3386L10.1255 13.5389C10.1448 13.5196 10.1544 13.51 10.1667 13.5049C10.1789 13.4998 10.1926 13.4998 10.2198 13.4998L11.6015 13.4998C11.9121 13.4999 12.1933 13.4999 12.4215 13.4692C12.6714 13.4356 12.931 13.3572 13.144 13.1442C13.357 12.9312 13.4355 12.6716 13.4691 12.4217C13.4997 12.1935 13.4997 11.9122 13.4997 11.6017V11.6017L13.4997 10.22C13.4997 10.1927 13.4997 10.1791 13.5047 10.1668C13.5098 10.1546 13.5195 10.145 13.5387 10.1257L14.3384 9.32598C14.5543 9.11015 14.7504 8.9141 14.8881 8.73357C15.0392 8.53557 15.1663 8.29868 15.1663 7.99984C15.1663 7.70099 15.0392 7.46411 14.8881 7.2661C14.7504 7.08559 14.5543 6.88955 14.3385 6.67374L13.5387 5.87399C13.5195 5.85472 13.5098 5.84509 13.5047 5.83283C13.4997 5.82058 13.4997 5.80696 13.4997 5.77971L13.4997 4.39799V4.39797C13.4997 4.08745 13.4997 3.80616 13.4691 3.57802C13.4355 3.32806 13.357 3.06848 13.144 2.85549C12.931 2.6425 12.6714 2.56405 12.4215 2.53045C12.1934 2.49977 11.912 2.4998 11.6015 2.49983H11.6015L10.2198 2.49984C10.1926 2.49984 10.1789 2.49984 10.1667 2.49476C10.1544 2.48969 10.1448 2.48005 10.1255 2.46079L10.1255 2.46078ZM7.87252 1.90639C7.75192 1.9984 7.60353 2.14529 7.35926 2.38957C7.31856 2.43026 7.34738 2.49984 7.40493 2.49984L8.59442 2.49984C8.65196 2.49984 8.68079 2.43026 8.64009 2.38957C8.39582 2.14529 8.24743 1.9984 8.12683 1.90639C8.07124 1.86398 8.03757 1.84613 8.01946 1.83858C8.00623 1.83306 8.00186 1.83313 8.00001 1.83317H7.99934C7.99749 1.83313 7.99312 1.83306 7.97989 1.83858C7.96178 1.84613 7.92811 1.86398 7.87252 1.90639ZM11.2639 3.54099C11.281 3.49984 11.3495 3.49984 11.4865 3.49984H11.5711C11.922 3.49984 12.1348 3.5009 12.2882 3.52153C12.3591 3.53106 12.3969 3.54256 12.4161 3.55049C12.4309 3.55657 12.4347 3.56034 12.4367 3.56239C12.4388 3.56443 12.4429 3.5686 12.449 3.58337C12.457 3.60265 12.4685 3.64041 12.478 3.71127C12.4986 3.86472 12.4997 4.07756 12.4997 4.42841V4.51304C12.4997 4.65004 12.4997 4.71853 12.4585 4.73558C12.4174 4.75263 12.3689 4.70419 12.2721 4.60732L11.3922 3.72745C11.2953 3.63058 11.2469 3.58215 11.2639 3.54099ZM13.4997 8.59458C13.4997 8.65213 13.5693 8.68095 13.6099 8.64025C13.8542 8.39598 14.0011 8.24759 14.0931 8.12699C14.1355 8.0714 14.1534 8.03773 14.1609 8.01963C14.1665 8.00639 14.1664 8.00202 14.1663 8.00018V7.9995C14.1664 7.99765 14.1665 7.99328 14.1609 7.98005C14.1534 7.96194 14.1355 7.92827 14.0931 7.87268C14.0011 7.75209 13.8542 7.6037 13.6099 7.35942C13.5693 7.31873 13.4997 7.34755 13.4997 7.40509L13.4997 8.59458ZM11.2639 12.4587C11.281 12.4998 11.3495 12.4998 11.4865 12.4998H11.5711C11.922 12.4998 12.1348 12.4988 12.2882 12.4781C12.3591 12.4686 12.3969 12.4571 12.4161 12.4492C12.4309 12.4431 12.4347 12.4393 12.4367 12.4373C12.4387 12.4352 12.4429 12.4311 12.449 12.4163C12.457 12.397 12.4685 12.3593 12.478 12.2884C12.4986 12.135 12.4997 11.9221 12.4997 11.5713V11.4866C12.4997 11.3496 12.4997 11.2811 12.4585 11.2641C12.4174 11.247 12.3689 11.2955 12.2721 11.3924L11.3922 12.2722C11.2953 12.3691 11.2469 12.4175 11.2639 12.4587ZM7.40493 13.4998C7.34738 13.4998 7.31857 13.5694 7.35926 13.6101C7.60353 13.8544 7.75192 14.0013 7.87252 14.0933C7.92811 14.1357 7.96178 14.1535 7.97989 14.1611C7.99312 14.1666 7.99749 14.1665 7.99934 14.1665H8.00001C8.00186 14.1665 8.00623 14.1666 8.01946 14.1611C8.03757 14.1535 8.07124 14.1357 8.12683 14.0933C8.24743 14.0013 8.39582 13.8544 8.64009 13.6101C8.68078 13.5694 8.65197 13.4998 8.59442 13.4998H7.40493ZM3.54083 11.2641C3.49967 11.2811 3.49967 11.3496 3.49967 11.4866V11.5713C3.49967 11.9221 3.50074 12.135 3.52137 12.2884C3.53089 12.3593 3.5424 12.397 3.55033 12.4163C3.55641 12.4311 3.56018 12.4348 3.56223 12.4369C3.56426 12.4389 3.56843 12.4431 3.5832 12.4492C3.60249 12.4571 3.64025 12.4686 3.7111 12.4781C3.86455 12.4988 4.07739 12.4998 4.42825 12.4998H4.51288C4.64987 12.4998 4.71837 12.4998 4.73542 12.4587C4.75247 12.4175 4.70403 12.3691 4.60716 12.2722L4.60716 12.2722L3.72729 11.3924C3.63042 11.2955 3.58198 11.247 3.54083 11.2641ZM2.49967 7.4051C2.49967 7.34755 2.4301 7.31873 2.3894 7.35942C2.14513 7.6037 1.99824 7.75209 1.90623 7.87268C1.86382 7.92827 1.84597 7.96194 1.83842 7.98005C1.8329 7.99328 1.83297 7.99765 1.833 7.9995V8.00018C1.83297 8.00202 1.8329 8.00639 1.83842 8.01963C1.84597 8.03773 1.86382 8.07141 1.90623 8.12699C1.99824 8.24759 2.14513 8.39598 2.3894 8.64025C2.4301 8.68095 2.49967 8.65213 2.49967 8.59458V7.4051ZM4.73542 3.54099C4.71837 3.49984 4.64987 3.49984 4.51288 3.49984H4.42825C4.07739 3.49984 3.86455 3.5009 3.7111 3.52153C3.64025 3.53106 3.60249 3.54256 3.5832 3.55049C3.56843 3.55657 3.56469 3.56034 3.56265 3.56239C3.5606 3.56443 3.55641 3.56859 3.55033 3.58337C3.5424 3.60265 3.53089 3.64041 3.52137 3.71127C3.50074 3.86472 3.49967 4.07755 3.49967 4.42841V4.51304C3.49967 4.65004 3.49967 4.71853 3.54083 4.73558C3.58198 4.75263 3.63042 4.70419 3.72729 4.60733L3.72729 4.60732L4.60716 3.72745C4.70403 3.63058 4.75247 3.58215 4.73542 3.54099ZM7.99967 6.1665C6.98715 6.1665 6.16634 6.98731 6.16634 7.99984C6.16634 9.01236 6.98715 9.83317 7.99967 9.83317C9.0122 9.83317 9.83301 9.01236 9.83301 7.99984C9.83301 6.98731 9.0122 6.1665 7.99967 6.1665Z" fill="white"/>
</svg>
