<svg width="24" height="24" viewBox="0 0 24 24" fill="none" xmlns="http://www.w3.org/2000/svg">
<path d="M12 1.25C17.9371 1.25 22.75 6.06294 22.75 12C22.75 17.9371 17.9371 22.75 12 22.75C6.06294 22.75 1.25 17.9371 1.25 12C1.25 6.06294 6.06294 1.25 12 1.25ZM17.0518 16.4922C14.3844 13.598 9.57101 13.7457 6.95801 16.4824C6.75072 16.6995 6.69249 17.0189 6.81055 17.2949C6.92862 17.5709 7.19982 17.75 7.5 17.75H16.5C16.7978 17.75 17.067 17.5735 17.1865 17.3008C17.3059 17.0282 17.2533 16.7111 17.0518 16.4922ZM11.9912 6.25C10.1955 6.25018 8.73828 7.70418 8.73828 9.5C8.73828 11.2958 10.1955 12.7498 11.9912 12.75C13.7871 12.75 15.2451 11.2959 15.2451 9.5C15.2451 7.70407 13.7871 6.25 11.9912 6.25Z" fill="#C8C8C8"/>
</svg>
